<?xml version="1.0" standalone="no"?>
<!DOCTYPE svg PUBLIC "-//W3C//DTD SVG 20010904//EN"
 "http://www.w3.org/TR/2001/REC-SVG-20010904/DTD/svg10.dtd">
<svg version="1.0" xmlns="http://www.w3.org/2000/svg"
 width="144.000000pt" height="144.000000pt" viewBox="0 0 144.000000 144.000000"
 preserveAspectRatio="xMidYMid meet">

<g transform="translate(0.000000,144.000000) scale(0.100000,-0.100000)"
fill="#000000" stroke="none">
<path d="M230 1431 c-91 -29 -174 -104 -206 -187 -18 -46 -19 -81 -19 -529 0
-469 0 -481 21 -526 30 -64 88 -125 148 -157 l51 -27 495 0 495 0 43 23 c66
35 119 88 149 150 l28 57 0 485 0 485 -24 52 c-26 58 -86 120 -153 155 l-43
23 -480 2 c-264 1 -491 -2 -505 -6z m747 -345 c62 -29 122 -89 154 -154 22
-44 24 -59 24 -212 0 -160 -1 -167 -27 -216 -35 -67 -115 -138 -178 -159 -41
-14 -85 -16 -252 -13 -200 3 -204 3 -249 30 -60 36 -105 82 -137 143 -24 46
-27 62 -30 192 -3 109 0 154 12 196 23 79 81 148 157 186 l62 31 206 0 c197 0
208 -1 258 -24z"/>
<path d="M545 900 c-11 -4 -31 -20 -45 -35 -24 -25 -25 -33 -25 -145 0 -118 0
-119 29 -149 l30 -31 181 0 c147 0 185 3 203 16 40 28 52 66 52 167 0 81 -3
99 -23 128 -12 18 -34 39 -47 46 -29 15 -322 17 -355 3z m275 -140 c11 -11 20
-29 20 -40 0 -11 -9 -29 -20 -40 -17 -17 -33 -20 -100 -20 -67 0 -83 3 -100
20 -24 24 -25 48 -4 78 14 20 24 22 100 22 71 0 87 -3 104 -20z"/>
</g>
</svg>
